<svg width="20" height="19" viewBox="0 0 20 19" fill="none" xmlns="http://www.w3.org/2000/svg">
<path d="M9.55952 0.312988C4.27938 0.312988 0 4.32456 0 9.27427C0 14.224 4.27938 18.2355 9.55952 18.2355C14.8397 18.2355 19.119 14.224 19.119 9.27427C19.119 4.32456 14.8397 0.312988 9.55952 0.312988ZM11.6693 7.75505L11.561 9.09574H10.0935V13.7514H8.24135V9.09574H7.25179V7.75505H8.24135V6.85542C8.24135 6.45987 8.25255 5.84728 8.55876 5.46572C8.88363 5.06317 9.328 4.79013 10.0935 4.79013C11.3407 4.79013 11.8635 4.95815 11.8635 4.95815L11.6171 6.33035C11.6171 6.33035 11.2063 6.21833 10.8217 6.21833C10.4371 6.21833 10.0935 6.34785 10.0935 6.7084V7.75505H11.6693Z" fill="#EFEFF4" fill-opacity="0.6"/>
</svg>
