<svg width="20" height="19" viewBox="0 0 20 19" fill="none" xmlns="http://www.w3.org/2000/svg">
<path fill-rule="evenodd" clip-rule="evenodd" d="M6.46271 0.422969C4.92785 0.488789 3.59752 0.845444 2.5233 1.86211C1.44534 2.88411 1.07474 4.15352 1.00532 5.59713C0.962161 6.49816 0.709805 13.3053 1.44158 15.0904C1.93507 16.2948 2.907 17.2208 4.18573 17.6913C4.78241 17.9119 5.46355 18.0612 6.46271 18.1048C14.8172 18.4642 17.9141 18.2685 19.2201 15.0904C19.4518 14.5247 19.6113 13.8779 19.6554 12.9306C20.0372 4.96989 19.5935 3.24434 18.1374 1.86211C16.9825 0.767168 15.624 0.0218187 6.46271 0.422969ZM6.53962 16.5038C5.6249 16.4646 5.12861 16.3198 4.79743 16.1979C3.96433 15.8902 3.33857 15.2979 3.01677 14.5107C2.45949 13.1542 2.64432 6.71179 2.69405 5.66933C2.74283 4.64821 2.96049 3.71498 3.71853 2.99451C4.65671 2.10504 5.86883 1.66912 14.122 2.02313C15.199 2.06938 16.1832 2.27582 16.9431 2.99451C17.8813 3.88398 18.3466 5.04489 17.9676 12.8589C17.9263 13.7261 17.7734 14.1967 17.6449 14.5107C16.7958 16.5787 14.8425 16.8658 6.53962 16.5038ZM14.213 4.51548C14.213 5.10431 14.7168 5.58313 15.3388 5.58313C15.9608 5.58313 16.4656 5.10431 16.4656 4.51548C16.4656 3.92665 15.9608 3.44827 15.3388 3.44827C14.7168 3.44827 14.213 3.92665 14.213 4.51548ZM5.51327 9.26345C5.51327 11.786 7.67014 13.8312 10.3308 13.8312C12.9915 13.8312 15.1484 11.786 15.1484 9.26345C15.1484 6.74091 12.9915 4.69706 10.3308 4.69706C7.67014 4.69706 5.51327 6.74091 5.51327 9.26345ZM7.20386 9.26345C7.20386 7.62683 8.60363 6.29898 10.3308 6.29898C12.058 6.29898 13.4578 7.62683 13.4578 9.26345C13.4578 10.901 12.058 12.2292 10.3308 12.2292C8.60363 12.2292 7.20386 10.901 7.20386 9.26345Z" fill="#EFEFF4" fill-opacity="0.6"/>
</svg>
