<svg width="20" height="16" viewBox="0 0 20 16" fill="none" xmlns="http://www.w3.org/2000/svg">
<path d="M4.7422 7.51788V7.51255V2.18345L4.69301 2.14697H4.68891L3.56978 1.31898C2.88518 0.810703 1.90953 0.835297 1.30282 1.43375C0.896984 1.83545 0.642822 2.39291 0.642822 3.01186V4.48832L4.7422 7.51788ZM15.4006 7.51255V7.51788L19.5 4.48832V3.01186C19.5 2.40111 19.254 1.84365 18.8523 1.44195C18.2537 0.844724 17.3088 0.774632 16.6287 1.27676L15.4498 2.14697L15.4006 2.18345V7.51255ZM5.56207 8.11838L9.82789 11.2713C9.97259 11.3783 10.1706 11.3783 10.3153 11.2713L14.5807 8.11838V2.78929L10.0714 6.12299L5.56207 2.78929V8.11838ZM15.4006 8.53689V14.7309C15.4006 14.9571 15.5842 15.1408 15.8105 15.1408H18.4751C19.0412 15.1408 19.5 14.6821 19.5 14.116V5.50692L15.4006 8.53689ZM4.7422 8.53689L0.642822 5.50692V14.116C0.642822 14.6821 1.10154 15.1408 1.66767 15.1408H4.33226C4.55855 15.1408 4.7422 14.9571 4.7422 14.7309V8.53689Z" fill="#EFEFF4" fill-opacity="0.6"/>
</svg>
